<svg id="Layer_1" enable-background="new 0 0 512 512" height="512" viewBox="0 0 512 512" width="512" xmlns="http://www.w3.org/2000/svg"><g><path d="m59.754 190.266c-6.771-1.598-11.554-7.642-11.554-14.599v-160.667c0-8.284 6.716-15 15-15 24.719 0 47.965 9.628 65.456 27.109l41.551 41.551c4.29 4.29 5.573 10.741 3.252 16.347-2.322 5.605-7.792 9.26-13.858 9.26-24.014 0-45.6 13.343-56.336 34.821l-26.647 53.287c-1.384 2.765-6.99 10.22-16.864 7.891z" fill="#ecbe00"/><path d="m338.983 182.375-26.646-53.283c-10.737-21.483-32.323-34.825-56.337-34.825-6.067 0-11.537-3.654-13.858-9.26-2.321-5.605-1.038-12.057 3.252-16.347l41.548-41.548c17.493-17.484 40.739-27.112 65.458-27.112 8.284 0 15 6.716 15 15v160.667c0 6.957-4.783 13.001-11.554 14.599-9.912 2.339-15.508-5.181-16.863-7.891z" fill="#ff9d21"/><path d="m414.016 265.357-74.845-149.682c-15.85-31.71-47.719-51.408-83.171-51.408h-96.4c-35.452 0-67.321 19.698-83.17 51.407l-74.846 149.683c-2.035 4.069-2.113 8.843-.212 12.977s5.576 7.181 9.99 8.284l60.236 15.06 61.329 61.329h149.746l61.33-61.329 60.236-15.06c4.414-1.104 8.088-4.15 9.99-8.284 1.9-4.134 1.822-8.907-.213-12.977z" fill="#ffd845"/><path d="m344.002 301.678 60.236-15.06c4.414-1.104 8.088-4.15 9.99-8.284 1.901-4.134 1.823-8.907-.212-12.977l-74.845-149.682c-15.85-31.71-47.719-51.408-83.171-51.408h-48.202v298.74h74.875z" fill="#ecbe00"/><circle clip-rule="evenodd" cx="143.533" cy="207.8" fill="#412830" fill-rule="evenodd" r="15"/><circle clip-rule="evenodd" cx="272.067" cy="207.8" fill="#001e28" fill-rule="evenodd" r="15"/><path d="m207.8 418.336c-12.069 0-24.137-4.594-33.325-13.781l-41.548-41.548c-5.779-5.779-5.94-15.26.01-21.225 20.004-19.994 46.591-31.005 74.863-31.005s54.859 11.011 74.863 31.005c5.801 5.773 5.926 15.309.011 21.225l-41.549 41.548c-9.188 9.187-21.256 13.781-33.325 13.781z" fill="#823237"/><g fill="#00a08c"><path d="m497 447.733h-16.067c-8.284 0-15-6.716-15-15s6.716-15 15-15h16.067c8.284 0 15 6.716 15 15s-6.716 15-15 15z"/><path d="m384.533 447.733h-16.066c-8.284 0-15-6.716-15-15s6.716-15 15-15h16.066c8.284 0 15 6.716 15 15s-6.716 15-15 15z"/><path d="m432.733 512c-8.284 0-15-6.716-15-15v-16.067c0-8.284 6.716-15 15-15s15 6.716 15 15v16.067c0 8.284-6.715 15-15 15z"/><path d="m432.733 399.533c-8.284 0-15-6.716-15-15v-16.066c0-8.284 6.716-15 15-15s15 6.716 15 15v16.066c0 8.284-6.715 15-15 15z"/><path d="m409.273 388.039-22.172-22.151c-5.861-5.855-15.358-5.85-21.213.01-5.855 5.861-5.851 15.358.01 21.213l22.172 22.151c5.861 5.855 15.358 5.85 21.213-.01 5.856-5.861 5.851-15.358-.01-21.213z"/><path d="m456.193 388.039 22.172-22.151c5.861-5.855 15.358-5.85 21.213.01 5.855 5.861 5.851 15.358-.01 21.213l-22.172 22.151c-5.861 5.855-15.358 5.85-21.213-.01-5.855-5.861-5.85-15.358.01-21.213z"/><path d="m499.568 478.355-22.172-22.151c-5.861-5.855-15.358-5.85-21.213.01-5.855 5.861-5.851 15.358.01 21.213l22.172 22.151c5.861 5.855 15.358 5.85 21.213-.01 5.856-5.86 5.851-15.358-.01-21.213z"/><path d="m365.899 478.355 22.172-22.151c5.861-5.855 15.358-5.85 21.213.01 5.855 5.861 5.851 15.358-.01 21.213l-22.172 22.151c-5.861 5.855-15.358 5.85-21.213-.01s-5.851-15.358.01-21.213z"/></g><ellipse cx="432.733" cy="432.733" fill="#dff473" rx="63.2" ry="63.2" transform="matrix(.707 -.707 .707 .707 -179.244 432.733)"/><path d="m432.733 495.933v-126.4c34.849 0 63.2 28.352 63.2 63.2s-28.351 63.2-63.2 63.2z" fill="#8ee26b"/><path d="m207.798 310.777v107.559h.002c12.068 0 24.137-4.594 33.324-13.781l41.549-41.548c5.915-5.915 5.79-15.451-.011-21.225-20.003-19.994-46.59-31.005-74.863-31.005 0 0 0 0-.001 0z" fill="#412830"/></g></svg>