<?xml version="1.0" encoding="utf-8"?>
<!-- Generator: Adobe Illustrator 19.0.0, SVG Export Plug-In . SVG Version: 6.00 Build 0)  -->
<svg version="1.1" id="Layer_1" xmlns="http://www.w3.org/2000/svg" xmlns:xlink="http://www.w3.org/1999/xlink" x="0px" y="0px"
	 viewBox="-21 22 207 207" style="enable-background:new -21 22 207 207;" xml:space="preserve">
<style type="text/css">
	.st0{opacity:0.8;}
	.st1{fill:#BF6EF9;}
	.st2{opacity:0.41;fill:#BF6EF9;}
	.st3{opacity:0.4;fill:#BF6EF9;}
	.st4{opacity:0.48;clip-path:url(#XMLID_2_);fill:#BF6EF9;}
	.st5{opacity:0.57;fill:#BF6EF9;}
	.st6{opacity:0.34;fill:#BF6EF9;}
</style>
<g>
	<g class="st0">
		<path class="st1" d="M56.5,39.1c0,0,7.4,10.8,5.9,21.6l9.4-2.1c0,0-6.5-17.4-2.9-22.5C68.9,36.1,59.8,36.3,56.5,39.1z"/>
		<path class="st2" d="M56.5,39.1c0,0,7.4,10.8,5.9,21.6l9.4-2.1c0,0-6.5-17.4-2.9-22.5C68.9,36.1,59.8,36.3,56.5,39.1z"/>
		<ellipse transform="matrix(0.975 -0.2224 0.2224 0.975 -6.0288 14.6115)" class="st1" cx="61.9" cy="34.1" rx="10.8" ry="5.7"/>
		<ellipse transform="matrix(0.975 -0.2223 0.2223 0.975 -5.8515 13.7728)" class="st3" cx="58.2" cy="32.9" rx="4.1" ry="2.2"/>
	</g>
	<g class="st0">
		<path class="st1" d="M96.1,212.7c0,0,2-13-4-22l9.4-2.1c0,0,1.7,18.5,7.1,21.5C108.6,210.1,100.3,213.9,96.1,212.7z"/>
		<path class="st2" d="M96.1,212.7c0,0,2-13-4-22l9.4-2.1c0,0,1.7,18.5,7.1,21.5C108.6,210.1,100.3,213.9,96.1,212.7z"/>
		
			<ellipse transform="matrix(0.975 -0.2224 0.2224 0.975 -45.2067 28.3089)" class="st1" cx="103.1" cy="214.9" rx="10.8" ry="5.7"/>
		<ellipse transform="matrix(0.975 -0.2223 0.2223 0.975 -45.8677 27.7634)" class="st3" cx="100.4" cy="217.6" rx="4.1" ry="2.2"/>
	</g>
	<g class="st0">
		<path class="st1" d="M-2.9,150.5c0,0,10.8-7.4,21.6-5.9l-2.1-9.4c0,0-17.4,6.5-22.5,2.9C-5.9,138.1-5.8,147.2-2.9,150.5z"/>
		<path class="st2" d="M-2.9,150.5c0,0,10.8-7.4,21.6-5.9l-2.1-9.4c0,0-17.4,6.5-22.5,2.9C-5.9,138.1-5.8,147.2-2.9,150.5z"/>
		
			<ellipse transform="matrix(-0.2224 -0.975 0.975 -0.2224 -151.1752 169.6673)" class="st1" cx="-7.9" cy="145.1" rx="10.8" ry="5.7"/>
		
			<ellipse transform="matrix(-0.2224 -0.975 0.975 -0.2224 -156.1941 172.9358)" class="st3" cx="-9.1" cy="148.8" rx="4.1" ry="2.2"/>
	</g>
	<g class="st0">
		<path class="st1" d="M170.7,110.9c0,0-13-2-22,4l-2.1-9.4c0,0,18.5-1.7,21.5-7.1C168.1,98.4,171.9,106.7,170.7,110.9z"/>
		<path class="st2" d="M170.7,110.9c0,0-13-2-22,4l-2.1-9.4c0,0,18.5-1.7,21.5-7.1C168.1,98.4,171.9,106.7,170.7,110.9z"/>
		
			<ellipse transform="matrix(-0.2224 -0.975 0.975 -0.2224 110.0902 295.5689)" class="st1" cx="172.9" cy="103.9" rx="10.8" ry="5.7"/>
		
			<ellipse transform="matrix(-0.2223 -0.975 0.975 -0.2223 110.6608 301.53)" class="st3" cx="175.6" cy="106.6" rx="4.1" ry="2.2"/>
	</g>
	<g class="st0">
		<path class="st1" d="M40.5,203.3c0,0,2.4-12.9,11.1-19.5l-8.2-5.1c0,0-7.7,16.9-13.8,18C29.6,196.7,36.2,203,40.5,203.3z"/>
		<path class="st2" d="M40.5,203.3c0,0,2.4-12.9,11.1-19.5l-8.2-5.1c0,0-7.7,16.9-13.8,18C29.6,196.7,36.2,203,40.5,203.3z"/>
		
			<ellipse transform="matrix(-0.8466 -0.5322 0.5322 -0.8466 -46.8414 392.5428)" class="st1" cx="33.1" cy="203" rx="10.8" ry="5.7"/>
		
			<ellipse transform="matrix(-0.8466 -0.5322 0.5322 -0.8466 -45.4925 399.7788)" class="st3" cx="34.9" cy="206.4" rx="4.1" ry="2.2"/>
	</g>
	<g class="st0">
		<path class="st1" d="M135.3,52.5c0,0-10.6,7.8-12.7,18.4l-8.2-5.1c0,0,11.9-14.3,10.2-20.2C124.6,45.6,133.1,48.7,135.3,52.5z"/>
		<path class="st2" d="M135.3,52.5c0,0-10.6,7.8-12.7,18.4l-8.2-5.1c0,0,11.9-14.3,10.2-20.2C124.6,45.6,133.1,48.7,135.3,52.5z"/>
		
			<ellipse transform="matrix(-0.8466 -0.5322 0.5322 -0.8466 219.0155 155.0821)" class="st1" cx="131.9" cy="46" rx="10.8" ry="5.7"/>
		
			<ellipse transform="matrix(-0.8466 -0.5322 0.5322 -0.8466 226.0549 157.236)" class="st3" cx="135.7" cy="46" rx="4.1" ry="2.2"/>
	</g>
	<g class="st0">
		<path class="st1" d="M161.3,166.5c0,0-12.9-2.4-19.5-11.1l-5.1,8.2c0,0,16.9,7.7,18,13.8C154.7,177.4,161,170.8,161.3,166.5z"/>
		<path class="st2" d="M161.3,166.5c0,0-12.9-2.4-19.5-11.1l-5.1,8.2c0,0,16.9,7.7,18,13.8C154.7,177.4,161,170.8,161.3,166.5z"/>
		
			<ellipse transform="matrix(-0.5322 0.8466 -0.8466 -0.5322 393.9012 130.0578)" class="st1" cx="161" cy="173.9" rx="10.8" ry="5.7"/>
		
			<ellipse transform="matrix(-0.5322 0.8466 -0.8466 -0.5322 397.693 124.5282)" class="st3" cx="164.4" cy="172.1" rx="4.1" ry="2.2"/>
	</g>
	<g class="st0">
		<path class="st1" d="M10.5,71.7c0,0,7.8,10.6,18.4,12.7l-5.1,8.2c0,0-14.3-11.9-20.2-10.2C3.6,82.4,6.7,73.9,10.5,71.7z"/>
		<path class="st2" d="M10.5,71.7c0,0,7.8,10.6,18.4,12.7l-5.1,8.2c0,0-14.3-11.9-20.2-10.2C3.6,82.4,6.7,73.9,10.5,71.7z"/>
		<ellipse transform="matrix(-0.5322 0.8466 -0.8466 -0.5322 69.7172 111.7677)" class="st1" cx="4" cy="75.1" rx="10.8" ry="5.7"/>
		<ellipse transform="matrix(-0.5322 0.8466 -0.8466 -0.5322 66.5718 105.8459)" class="st3" cx="4" cy="71.3" rx="4.1" ry="2.2"/>
	</g>
	<g class="st0">
		<path class="st1" d="M132.3,189.5c0,0-9.5-6.6-11.6-15.9l-7,4.7c0,0,10.8,12.3,9.4,17.5C123.1,195.8,130.4,192.9,132.3,189.5z"/>
		<path class="st2" d="M132.3,189.5c0,0-9.5-6.6-11.6-15.9l-7,4.7c0,0,10.8,12.3,9.4,17.5C123.1,195.8,130.4,192.9,132.3,189.5z"/>
		
			<ellipse transform="matrix(-0.8316 0.5553 -0.5553 -0.8316 345.4859 285.8393)" class="st1" cx="129.4" cy="195.3" rx="9.5" ry="5"/>
		
			<ellipse transform="matrix(-0.8316 0.5553 -0.5553 -0.8316 351.5587 283.7015)" class="st3" cx="132.8" cy="195.1" rx="3.6" ry="1.9"/>
	</g>
	<g class="st0">
		<path class="st1" d="M90,46.6c0,0,2.2,11.3-2.7,19.5l8.3,1.5c0,0,0.8-16.3,5.4-19.2C101,48.4,93.6,45.4,90,46.6z"/>
		<path class="st2" d="M90,46.6c0,0,2.2,11.3-2.7,19.5l8.3,1.5c0,0,0.8-16.3,5.4-19.2C101,48.4,93.6,45.4,90,46.6z"/>
		<ellipse transform="matrix(0.9839 0.1785 -0.1785 0.9839 9.4655 -16.4301)" class="st1" cx="96" cy="44.4" rx="9.5" ry="5"/>
		<ellipse transform="matrix(0.9839 0.1785 -0.1785 0.9839 9.0271 -16.0158)" class="st3" cx="93.5" cy="42.2" rx="3.6" ry="1.9"/>
	</g>
	<g class="st0">
		<path class="st1" d="M38.9,56.3c0,0,1.7,7.8,7.1,11.6l-4.9,3.2c0,0-5-10.1-8.7-10.7C32.4,60.5,36.3,56.6,38.9,56.3z"/>
		<path class="st2" d="M38.9,56.3c0,0,1.7,7.8,7.1,11.6l-4.9,3.2c0,0-5-10.1-8.7-10.7C32.4,60.5,36.3,56.6,38.9,56.3z"/>
		
			<ellipse transform="matrix(-0.8316 0.5553 -0.5553 -0.8316 94.5338 84.6009)" class="st1" cx="34.4" cy="56.6" rx="6.6" ry="3.5"/>
		
			<ellipse transform="matrix(-0.8316 0.5553 -0.5553 -0.8316 95.1677 80.1993)" class="st3" cx="35.4" cy="54.5" rx="2.5" ry="1.3"/>
	</g>
	<g class="st0">
		<path class="st1" d="M16.6,170.4c0,0,7.4-2.9,10.4-8.8l4,4.3c0,0-9.2,6.5-9.2,10.2C21.8,176.2,17.3,173,16.6,170.4z"/>
		<path class="st2" d="M16.6,170.4c0,0,7.4-2.9,10.4-8.8l4,4.3c0,0-9.2,6.5-9.2,10.2C21.8,176.2,17.3,173,16.6,170.4z"/>
		
			<ellipse transform="matrix(0.6774 0.7356 -0.7356 0.6774 134.2511 43.4238)" class="st1" cx="17.6" cy="174.8" rx="6.6" ry="3.5"/>
		
			<ellipse transform="matrix(0.6774 0.7356 -0.7356 0.6774 133.0566 44.8572)" class="st3" cx="15.4" cy="174.1" rx="2.5" ry="1.3"/>
	</g>
	<g class="st0">
		<path class="st1" d="M150.8,81.4c0,0-7.7,2-11.3,7.5l-3.4-4.7c0,0,9.9-5.4,10.3-9.1C146.3,75.1,150.4,78.8,150.8,81.4z"/>
		<path class="st2" d="M150.8,81.4c0,0-7.7,2-11.3,7.5l-3.4-4.7c0,0,9.9-5.4,10.3-9.1C146.3,75.1,150.4,78.8,150.8,81.4z"/>
		
			<ellipse transform="matrix(-0.5893 -0.8079 0.8079 -0.5893 176.6257 243.8069)" class="st1" cx="150.3" cy="77" rx="6.6" ry="3.5"/>
		
			<ellipse transform="matrix(-0.5893 -0.8079 0.8079 -0.5893 179.3112 246.9619)" class="st3" cx="152.4" cy="77.9" rx="2.5" ry="1.3"/>
	</g>
	<g class="st0">
		<path class="st1" d="M67,202.6c0,0,3.9-6.9,2.5-13.4l5.8,0.8c0,0-3,10.9-0.6,13.7C74.6,203.8,69.1,204.1,67,202.6z"/>
		<path class="st2" d="M67,202.6c0,0,3.9-6.9,2.5-13.4l5.8,0.8c0,0-3,10.9-0.6,13.7C74.6,203.8,69.1,204.1,67,202.6z"/>
		<ellipse transform="matrix(0.9904 0.1381 -0.1381 0.9904 29.0266 -7.7676)" class="st1" cx="70.5" cy="205.3" rx="6.6" ry="3.5"/>
		<ellipse transform="matrix(0.9904 0.1381 -0.1381 0.9904 29.1349 -7.4645)" class="st3" cx="68.4" cy="206.2" rx="2.5" ry="1.3"/>
	</g>
	<g class="st0">
		<path class="st1" d="M161.4,142c0,0-6.7-4.3-13.2-3.2l1.1-5.7c0,0,10.7,3.6,13.7,1.3C163,134.4,163,139.9,161.4,142z"/>
		<path class="st2" d="M161.4,142c0,0-6.7-4.3-13.2-3.2l1.1-5.7c0,0,10.7,3.6,13.7,1.3C163,134.4,163,139.9,161.4,142z"/>
		
			<ellipse transform="matrix(0.1909 -0.9816 0.9816 0.1909 -3.1232 273.4299)" class="st1" cx="164.3" cy="138.6" rx="6.6" ry="3.5"/>
		
			<ellipse transform="matrix(0.1909 -0.9816 0.9816 0.1909 -4.6125 275.9832)" class="st3" cx="165.1" cy="140.8" rx="2.5" ry="1.3"/>
	</g>
	<g class="st0">
		<path class="st1" d="M2.9,114.5c0,0,11.2-2.5,19.5,2.2l1.3-8.4c0,0-16.3-0.3-19.3-4.9C4.4,103.4,1.7,110.9,2.9,114.5z"/>
		<path class="st2" d="M2.9,114.5c0,0,11.2-2.5,19.5,2.2l1.3-8.4c0,0-16.3-0.3-19.3-4.9C4.4,103.4,1.7,110.9,2.9,114.5z"/>
		<ellipse transform="matrix(0.1521 -0.9884 0.9884 0.1521 -106.7307 92.5129)" class="st1" cx="0.6" cy="108.5" rx="9.5" ry="5"/>
		<ellipse transform="matrix(0.1521 -0.9884 0.9884 0.1521 -111.1104 92.5629)" class="st3" cx="-1.6" cy="111" rx="3.6" ry="1.9"/>
	</g>
	<g>
		<defs>
			<circle id="XMLID_3_" cx="82.1" cy="124.3" r="67.5"/>
		</defs>
		<use xlink:href="#XMLID_3_"  style="overflow:visible;opacity:0.8;fill:#BF6EF9;"/>
		<clipPath id="XMLID_2_">
			<use xlink:href="#XMLID_3_"  style="overflow:visible;opacity:0.8;"/>
		</clipPath>
		<circle class="st4" cx="94.5" cy="109.7" r="61.1"/>
	</g>
	
		<ellipse transform="matrix(0.2949 -0.9555 0.9555 0.2949 -35.398 153.6197)" class="st3" cx="86.4" cy="100.8" rx="32.3" ry="40.5"/>
	<g>
		<circle class="st5" cx="86" cy="80.9" r="8.3"/>
		<g>
			<circle class="st5" cx="48.5" cy="145.8" r="15.4"/>
			<circle class="st5" cx="98.6" cy="170.8" r="5.7"/>
			<circle class="st5" cx="53.6" cy="85" r="2.5"/>
			<circle class="st5" cx="106.1" cy="123.4" r="12.1"/>
			<circle class="st5" cx="64.5" cy="110" r="7.6"/>
			<circle class="st5" cx="115.8" cy="94.4" r="7.6"/>
			<circle class="st5" cx="121.9" cy="152.4" r="4.5"/>
			<circle class="st5" cx="27.3" cy="121.7" r="4.5"/>
		</g>
	</g>
	
		<ellipse transform="matrix(0.2949 -0.9555 0.9555 0.2949 -27.6681 148.2169)" class="st6" cx="86.6" cy="92.9" rx="16.1" ry="20.1"/>
</g>
</svg>
